<svg width="320" height="560" viewBox="0 0 320 560" fill="none" xmlns="http://www.w3.org/2000/svg">
<rect width="320" height="560" rx="15" fill="#E2D2FF"/>
<path d="M114.308 290.341V270.682H118.768V290.341H114.308ZM106.708 282.741V278.281H126.367V282.741H106.708ZM136.605 295H130.98L141.222 265.909H147.727L157.983 295H152.358L144.588 271.875H144.361L136.605 295ZM136.79 283.594H152.131V287.827H136.79V283.594ZM171.673 295H161.815V265.909H171.871C174.76 265.909 177.241 266.491 179.315 267.656C181.398 268.812 182.998 270.473 184.116 272.642C185.233 274.811 185.792 277.405 185.792 280.426C185.792 283.456 185.228 286.061 184.102 288.239C182.984 290.417 181.37 292.088 179.258 293.253C177.156 294.418 174.627 295 171.673 295ZM167.085 290.44H171.417C173.443 290.44 175.134 290.071 176.488 289.332C177.842 288.584 178.86 287.472 179.542 285.994C180.224 284.508 180.565 282.652 180.565 280.426C180.565 278.201 180.224 276.354 179.542 274.886C178.86 273.409 177.852 272.306 176.516 271.577C175.191 270.838 173.543 270.469 171.573 270.469H167.085V290.44ZM200.657 295H190.799V265.909H200.856C203.744 265.909 206.225 266.491 208.299 267.656C210.382 268.812 211.983 270.473 213.1 272.642C214.218 274.811 214.776 277.405 214.776 280.426C214.776 283.456 214.213 286.061 213.086 288.239C211.969 290.417 210.354 292.088 208.242 293.253C206.14 294.418 203.612 295 200.657 295ZM196.069 290.44H200.401C202.428 290.44 204.118 290.071 205.472 289.332C206.826 288.584 207.844 287.472 208.526 285.994C209.208 284.508 209.549 282.652 209.549 280.426C209.549 278.201 209.208 276.354 208.526 274.886C207.844 273.409 206.836 272.306 205.501 271.577C204.175 270.838 202.527 270.469 200.558 270.469H196.069V290.44Z" fill="#8950F8"/>
</svg>
