<svg width="28" height="26" viewBox="0 0 28 26" fill="none" xmlns="http://www.w3.org/2000/svg">
<path d="M28 7.99184C28 16.4448 19.55 22.9693 15.7796 25.4599C14.6881 26.1808 13.3123 26.1799 12.2215 25.4579C8.45167 22.9625 0 16.4274 0 7.99184C0 6.31449 0.513624 4.67966 1.46812 3.31893C2.42261 1.95819 3.76958 0.940539 5.31823 0.410115C6.86688 -0.120309 8.53869 -0.13661 10.0969 0.363521C11.655 0.863651 13.0205 1.85486 14 3.19674C14.9795 1.85486 16.345 0.863651 17.9031 0.363521C19.4613 -0.13661 21.1331 -0.120309 22.6818 0.410115C24.2304 0.940539 25.5774 1.95819 26.5319 3.31893C27.4864 4.67966 28 6.31449 28 7.99184Z" fill="#292D32"/>
<circle cx="22" cy="20" r="6" fill="#8950F8"/>
<path fill-rule="evenodd" clip-rule="evenodd" d="M22 17.5C21.7239 17.5 21.5 17.7239 21.5 18V19.5H20C19.7239 19.5 19.5 19.7239 19.5 20C19.5 20.2761 19.7239 20.5 20 20.5H21.5V22C21.5 22.2761 21.7239 22.5 22 22.5C22.2761 22.5 22.5 22.2761 22.5 22V20.5H24C24.2761 20.5 24.5 20.2761 24.5 20C24.5 19.7239 24.2761 19.5 24 19.5H22.5V18C22.5 17.7239 22.2761 17.5 22 17.5Z" fill="#292D32"/>
</svg>
