<svg width="39" height="33" viewBox="0 0 39 33" fill="none" xmlns="http://www.w3.org/2000/svg">
<circle cx="19.6099" cy="16.3277" r="14.8277" stroke="#8950F8" stroke-width="3"/>
<path d="M10.999 19.7607C8.69843 19.3519 29.1478 19.7607 28.381 20.2265C28.381 21.1581 23.3778 25.2107 19.6899 25.1175C16.0873 25.0265 11.5102 21.8568 10.999 19.7607Z" stroke="#8950F8" stroke-width="3"/>
<path d="M10.8187 10.1198L16.5385 12.4186" stroke="#8950F8" stroke-width="3" stroke-linecap="round"/>
<path d="M10.8182 14.8208L16.3444 12.5596" stroke="#8950F8" stroke-width="3" stroke-linecap="round"/>
<path d="M28.0024 15.5142L22.3733 13.0013" stroke="#8950F8" stroke-width="3" stroke-linecap="round"/>
<path d="M28.1798 10.8168L22.5723 12.868" stroke="#8950F8" stroke-width="3" stroke-linecap="round"/>
<path d="M2.78009 15.0719C4.03618 14.0671 6.54802 13.8996 8.05519 13.8159C8.05519 14.5695 7.30164 18.3374 5.79447 19.091C5.29208 19.3422 3.28248 19.5934 2.5289 18.3374C1.77531 17.0815 1.79931 15.8565 2.78009 15.0719Z" fill="white" stroke="#8950F8" stroke-width="3"/>
<path d="M32.7629 18.9113C31.7367 17.6727 31.526 15.1641 31.4164 13.6586C32.1699 13.6456 35.9502 14.3343 36.7296 15.8283C36.9894 16.3263 37.2751 18.3313 36.0323 19.1063C34.7894 19.8814 33.5642 19.8785 32.7629 18.9113Z" fill="white" stroke="#8950F8" stroke-width="3"/>
</svg>
