<svg width="34" height="34" viewBox="0 0 34 34" fill="none" xmlns="http://www.w3.org/2000/svg">
<path d="M9.91634 15.5835L15.583 2.8335C16.7102 2.8335 17.7912 3.28126 18.5882 4.07829C19.3852 4.87532 19.833 5.95633 19.833 7.0835V12.7502H27.8513C28.262 12.7455 28.6688 12.8302 29.0436 12.9984C29.4183 13.1666 29.752 13.4142 30.0215 13.7241C30.291 14.0341 30.4899 14.3989 30.6044 14.7934C30.7189 15.1878 30.7463 15.6024 30.6847 16.0085L28.7297 28.7585C28.6272 29.4341 28.284 30.0499 27.7634 30.4925C27.2427 30.9351 26.5796 31.1746 25.8963 31.1668H9.91634M9.91634 15.5835V31.1668M9.91634 15.5835H5.66634C4.91489 15.5835 4.19422 15.882 3.66287 16.4134C3.13152 16.9447 2.83301 17.6654 2.83301 18.4168V28.3335C2.83301 29.0849 3.13152 29.8056 3.66287 30.337C4.19422 30.8683 4.91489 31.1668 5.66634 31.1668H9.91634" stroke="#8950F8" stroke-width="3" stroke-linecap="round" stroke-linejoin="round"/>
</svg>
