<svg width="34" height="34" viewBox="0 0 34 34" fill="none" xmlns="http://www.w3.org/2000/svg">
<circle cx="17" cy="17" r="15.5" stroke="#8950F8" stroke-width="3"/>
<circle cx="10.9849" cy="13.0772" r="2.09231" fill="#8950F8"/>
<circle cx="22.4927" cy="13.0772" r="2.09231" fill="#8950F8"/>
<path d="M10.4619 25.6302C10.4619 20.3138 22.0219 17.1725 24.0619 25.6302" stroke="#8950F8" stroke-width="3" stroke-linecap="round" stroke-linejoin="round"/>
<path d="M20.8881 22.4587C20.8221 20.7852 22.2337 18.5767 23.0947 17.2619C23.7262 17.7275 26.4183 20.6871 26.1187 22.4157C26.0188 22.9919 24.9877 24.8313 23.4695 24.6868C21.9513 24.5423 20.9396 23.7654 20.8881 22.4587Z" fill="white"/>
<path d="M20.8881 22.4587C20.9396 23.7654 21.9513 24.5423 23.4695 24.6868M23.0947 17.2619C22.2337 18.5767 20.8221 20.7852 20.8881 22.4587C20.9396 23.7654 21.9513 24.5423 23.4695 24.6868C24.9877 24.8313 26.0188 22.9919 26.1187 22.4157C26.4183 20.6871 23.7262 17.7275 23.0947 17.2619Z" stroke="#8950F8" stroke-width="3"/>
</svg>
